<?xml version="1.0" encoding="UTF-8" standalone="no"?>
<svg
   viewBox="0 0 197 228.47963"
   width="197"
   height="228.47963"
   version="1.1"
   id="svg12"
   sodipodi:docname="celecx_logo.svg"
   inkscape:version="1.4.2 (ebf0e940d0, 2025-05-08)"
   inkscape:export-filename="celecx_logo.png"
   inkscape:export-xdpi="116.95432"
   inkscape:export-ydpi="116.95432"
   xmlns:inkscape="http://www.inkscape.org/namespaces/inkscape"
   xmlns:sodipodi="http://sodipodi.sourceforge.net/DTD/sodipodi-0.dtd"
   xmlns="http://www.w3.org/2000/svg"
   xmlns:svg="http://www.w3.org/2000/svg">
  <sodipodi:namedview
     id="namedview12"
     pagecolor="#ffffff"
     bordercolor="#999999"
     borderopacity="1"
     inkscape:showpageshadow="0"
     inkscape:pageopacity="0"
     inkscape:pagecheckerboard="0"
     inkscape:deskcolor="#d1d1d1"
     inkscape:zoom="5.575"
     inkscape:cx="157.66816"
     inkscape:cy="126.36771"
     inkscape:window-width="2367"
     inkscape:window-height="1869"
     inkscape:window-x="1636"
     inkscape:window-y="183"
     inkscape:window-maximized="1"
     inkscape:current-layer="svg12" />
  <defs
     id="defs3">
    <!-- Gradient for hex background -->
    <linearGradient
       id="hexGrad"
       x1="1.6154067"
       y1="1.1701595"
       x2="1.6154067"
       y2="213.32691"
       gradientTransform="scale(0.92855873,1.0769378)"
       gradientUnits="userSpaceOnUse">
      <stop
         offset="0%"
         style="stop-color:#1a2f4a;stop-opacity:1"
         id="stop1" />
      <stop
         offset="100%"
         style="stop-color:#0d1926;stop-opacity:1"
         id="stop2" />
    </linearGradient>
    <!-- Glow effect for new point -->
    <filter
       id="glow"
       x="-0.75714286"
       y="-0.75714286"
       width="2.5142857"
       height="2.5142857">
      <feGaussianBlur
         stdDeviation="4"
         result="coloredBlur"
         id="feGaussianBlur2" />
      <feMerge
         id="feMerge3">
        <feMergeNode
           in="coloredBlur"
           id="feMergeNode2" />
        <feMergeNode
           in="SourceGraphic"
           id="feMergeNode3" />
      </feMerge>
    </filter>
    <!-- Arrow marker -->
    <marker
       id="arrowhead"
       markerWidth="8"
       markerHeight="6"
       refX="0"
       refY="3"
       orient="auto">
      <polygon
         points="8,3 0,6 0,0 "
         fill="#ff6b6b"
         id="polygon3" />
    </marker>
  </defs>
  <!-- Hex shape -->
  <polygon
     points="197,171 100,228 3,171 3,60 100,3 197,60 "
     fill="url(#hexGrad)"
     stroke="#4ecdc4"
     stroke-width="3"
     id="polygon4"
     style="fill:url(#hexGrad)"
     transform="translate(-1.5,-1.260189)" />
  <g
     id="g14"
     style="font-variation-settings:normal;opacity:1;vector-effect:none;fill:#4ecdc4;fill-opacity:0.25;stroke-width:1;stroke-linecap:butt;stroke-linejoin:miter;stroke-miterlimit:4;stroke-dasharray:none;stroke-dashoffset:0;stroke-opacity:1;-inkscape-stroke:none;stop-color:#000000;stop-opacity:1"
     transform="translate(-1.5,-1.260189)">
    <path
       id="path14"
       d="m 20.179372,113.91928 14.61435,13.06727 c 0,0 5.898394,-18.74006 13.76149,-21.4964 8.120709,-2.84665 20.878717,2.99376 20.878717,2.99376 0,0 29.861638,-34.990015 45.385811,-34.990015 15.52418,0 35.23899,46.088095 35.23899,46.088095 l 34.68763,-15.06527 v 32 l -34.68763,-14.93473 c 0,0 -19.71481,13.9119 -35.23899,13.9119 -15.524173,0 -45.385811,-25.00998 -45.385811,-25.00998 0,0 -13.645856,26.15959 -20.878717,29.00624 -7.75333,3.05149 -13.76149,-10.5036 -13.76149,-10.5036 l -14.61435,14.93273 z"
       sodipodi:nodetypes="ccscsccccscsccc"
       style="font-variation-settings:normal;vector-effect:none;fill:#4ecdc4;fill-opacity:0.25;stroke-width:1;stroke-linecap:butt;stroke-linejoin:miter;stroke-miterlimit:4;stroke-dasharray:none;stroke-dashoffset:0;stroke-opacity:1;-inkscape-stroke:none;stop-color:#000000;stop-opacity:1" />
  </g>
  <!-- Inner hex border accent -->
  <polygon
     points="188,167 100,219 12,167 12,64 100,12 188,64 "
     fill="none"
     stroke="#4ecdc4"
     stroke-width="0.5"
     stroke-opacity="0.3"
     id="polygon5"
     transform="translate(-1.5,-1.260189)" />
  <!-- Uncertainty band - narrow at observed points, wide in gaps -->
  <!-- The band pinches at x=35, x=70, x=150 where we have points -->
  <!-- Maximum width around x=110 where there's a big gap -->
  <!-- Outer uncertainty bound (dashed) -->
  <!-- GP Mean curve -->
  <path
     d="m 18.5,128.73981 c 8,0 13,0 15,0 10,0 20,-15 35,-20 15,-5 25,-9.999999 40,-9.999999 15,0 25,9.999999 40,19.999999 10,7 25,5 35,0"
     fill="none"
     stroke="#4ecdc4"
     stroke-width="2.5"
     stroke-linecap="round"
     id="path8" />
  <g
     id="g12"
     transform="translate(-1.5,-1.260189)">
    <path
       d="m 20.179372,113.91928 14.61435,13.06727 c 0,0 5.898394,-18.74006 13.76149,-21.4964 8.120709,-2.84665 20.878717,2.99376 20.878717,2.99376 0,0 29.861638,-34.990015 45.385811,-34.990015 15.52418,0 35.23899,46.088095 35.23899,46.088095 l 34.68763,-15.06527"
       fill="none"
       stroke="#4ecdc4"
       stroke-width="1"
       stroke-opacity="0.5"
       stroke-dasharray="4, 2"
       id="path6"
       sodipodi:nodetypes="ccscscc" />
    <path
       d="m 20.179372,143.91928 14.61435,-14.93273 c 0,0 6.00816,13.55509 13.76149,10.5036 7.232861,-2.84665 20.878717,-29.00624 20.878717,-29.00624 0,0 29.861638,25.00998 45.385811,25.00998 15.52418,0 35.23899,-13.9119 35.23899,-13.9119 l 34.68763,14.93473"
       fill="none"
       stroke="#4ecdc4"
       stroke-width="1"
       stroke-opacity="0.5"
       stroke-dasharray="4, 2"
       id="path12"
       sodipodi:nodetypes="ccscscc" />
  </g>
  <!-- Existing data points (3 points at narrow uncertainty spots) -->
  <circle
     cx="33.5"
     cy="128.73981"
     r="5"
     fill="#45b7aa"
     stroke="#ffffff"
     stroke-width="1.5"
     id="circle8" />
  <circle
     cx="68.5"
     cy="108.73981"
     r="5"
     fill="#45b7aa"
     stroke="#ffffff"
     stroke-width="1.5"
     id="circle9" />
  <circle
     cx="148.5"
     cy="118.73981"
     r="5"
     fill="#45b7aa"
     stroke="#ffffff"
     stroke-width="1.5"
     id="circle10" />
  <!-- Arrow pointing to new point (at max uncertainty - the big gap) -->
  <path
     d="m 87.5,50.739811 q 7,10 12,20"
     fill="none"
     stroke="#ff6b6b"
     stroke-width="2.5"
     stroke-linecap="round"
     marker-end="url(#arrowhead)"
     id="path10" />
  <!-- Plus sign near arrow origin -->
  <g
     transform="translate(80.5,42.739811)"
     id="g11">
    <line
       x1="-5"
       y1="0"
       x2="5"
       y2="0"
       stroke="#ff6b6b"
       stroke-width="2.5"
       stroke-linecap="round"
       id="line10" />
    <line
       x1="0"
       y1="-5"
       x2="0"
       y2="5"
       stroke="#ff6b6b"
       stroke-width="2.5"
       stroke-linecap="round"
       id="line11" />
  </g>
  <!-- New selected point at maximum uncertainty (center of the big gap) -->
  <circle
     cx="112.5"
     cy="98.739815"
     r="7"
     fill="#ff6b6b"
     stroke="#ffffff"
     stroke-width="2"
     filter="url(#glow)"
     id="circle11" />
  <!-- Package name -->
  <text
     x="98.413475"
     y="175.8511"
     font-family="Monaco, 'Courier New', monospace"
     font-size="33.907px"
     font-weight="bold"
     fill="#ffffff"
     text-anchor="middle"
     id="text11"
     style="letter-spacing:0px;stroke-width:1.21096"
     dx="0 0 0"
     dy="0 0 0">c<tspan
   style="letter-spacing:-3px;word-spacing:0px"
   id="tspan15"
   dx="0"
   dy="0">e</tspan>lecx</text>
  <!-- Subtle tagline -->
</svg>
